<svg version="1.2" xmlns="http://www.w3.org/2000/svg" viewBox="0 0 932 322" width="932" height="322">
	<style>
		.s0 { fill: #57b000 } 
		.s1 { fill: #005291 } 
		.s2 { fill: #004e98 } 
		.s3 { fill: #69b32b } 
	</style>
	<g id="Layer 1">
		<path id="&lt;Compound Path&gt;" fill-rule="evenodd" class="s0" d="m464.42 75.6v34.94h-73.01c-18.7 0-43.32-10.47-44.02-35.91v-34.93h73.01q12.88 0 28.18 8.26 15.3 8.24 15.84 27.64zm-27.39 0.49q0.01-10.67-6.17-14.56-6.17-3.87-20.13-3.87h-35.96v16.49q0 10.68 6.16 14.55 6.18 3.89 20.13 3.89h35.97zm-325.58-9.7h89.2v17.7h-89.52v2.44c2.5 4.61 7.2 5.97 13.21 6.3h76.63v17.71h-0.05c-24.16 0-49.08-0.19-73.24-0.19-19.67-0.39-42.91-3.19-43.88-34.66l-0.06-0.08 0.05-0.96c-0.08-21.6 19.49-32.11 36.74-34.43h0.02q2.8-0.39 5.51-0.49 0.41 0 0.83-0.01h0.06q0.41-0.02 0.81-0.02h73.21v17.96h-64.81q-3.85 0.05-7.04 0.31-0.17 0-0.35 0.03c-7.41 0.7-13.96 2.77-17.32 8.39zm129.41 9.7c-0.12 18.87 12.14 16.84 28.1 16.74h63.76v17.71c-24.18 0-49.11-0.19-73.28-0.19-19.71-0.39-42.95-3.19-43.89-34.74-0.76-25.44 25.33-35.91 44.01-35.91h73.16v17.96h-63.49c-14.03 0-28.27 1.65-28.37 18.43z"/>
		<g id="&lt;Group&gt;">
			<path id="&lt;Path&gt;" class="s1" d="m632.16 211.92h23.31v-60.68h-23.31z"/>
			<path id="&lt;Compound Path&gt;" fill-rule="evenodd" class="s1" d="m818.41 150.92h73.08v61h-23.48v-15.15h-66.22v15.15h-27.35v-30.08c0.7-21.92 25.31-30.92 43.97-30.92zm9.66 15.47q-13.96-0.01-20.12 3.33-6.16 3.35-6.16 11.7h65.97v-15.03z"/>
			<path id="&lt;Path&gt;" class="s1" d="m652.19 123.33q-8.03 0-14.2-2.31c-4.11-1.52-6.3-3.71-6.56-6.77h-38.96c5.68 2.75 9.9 8.45 10.79 15.93 0.31 2.49 0.23 5.2-0.31 8.07q-0.57 3.29-2.03 6.83c-1.45 3.52-3.01 7.51-5.86 11.26-8.33 12.79-20.48 22.71-30.58 35.18-1.27 1.59-2.71 3.44-3.97 5.25-0.58 1.09-1.09 2-1.17 1.83q-0.31-0.46-0.55-0.77c-0.43-0.58-0.65-0.87-0.63-1.04-1.28-1.86-2.73-3.75-4.02-5.35-10.08-12.49-22.23-22.43-30.55-35.22-2.83-3.74-4.39-7.74-5.84-11.27-2.01-4.9-2.73-9.47-2.44-13.59 0.51-7.99 4.78-14.15 10.66-17.11h-39.78c-0.27 3.07-2.46 5.33-6.57 6.87q-6.16 2.3-14.21 2.3h-378.06v-0.05h-17.96q-5.35 0.01-5.35-5.01v-106.28h-23.61v116.54c-0.02 6.7 4.21 10.03 12.34 10.03h11.22l0.03 0.01h432.96l50.03 73.26h24.4l49.49-73.26h84.46l0.13 7.51-0.13 65.6 23.59 0.02v-73.13h162.62v-15.14c-80.01-0.05-158.67-0.19-239.38-0.19z"/>
			<path id="&lt;Path&gt;" class="s1" d="m558.57 131.97q0.4 0.84 0.78 1.71 0.38-0.88 0.78-1.71c2.95-6.23 6.47-10.79 10.21-13.94 1.96-1.64 3.98-2.88 6.01-3.78h-33.75q2.25 1.04 4.46 2.67c4.23 3.17 8.25 8.07 11.51 15.05z"/>
		</g>
	</g>
	<g id="Desktop">
		<g id="Product-Page-v02">
			<g id="Group-6">
				<g id="Group-3">
					<path id="Fill-1" fill-rule="evenodd" class="s2" d="m87.56 234.91l-1.87 10.78h-22.69l-1.96 10.52c1.7-0.35 4.25-0.61 6.38-0.61 10.11 0 18.36 5.48 18.36 16.78 0 6.96-2.98 12.08-7.31 15.47-5.78 4.61-14.03 6.26-22.02 6.26-5.95 0-11.81-0.43-14.45-0.86l10.71-58.34zm-31.71 49.29c1.37 0.26 2.64 0.26 4.34 0.26 5.95 0 12.67-3.65 12.67-10.69 0-5.65-3.74-8.69-9.1-8.69-1.44 0-3.23 0.17-4.5 0.43zm65.28-33.2c-3.57 5.38-6.97 10.78-9.27 16.43h0.09c2.72-2.53 6.55-3.91 11.05-3.91 6.72 0 11.82 4.25 11.82 11.73 0 9.04-7.99 19.04-22.44 19.04-7.48 0-15.13-2-15.13-12.26 0-6.69 3.99-15.3 8.24-21.38h-13.6l1.79-9.65zm1.69 26.42c0-3.13-1.95-4.95-5.01-4.95-3.66 0-6.63 2.69-7.65 5.13-0.51 1.04-0.77 2.08-0.77 3.3 0 2.44 1.45 4.52 4.59 4.52 4.59 0 8.84-3.22 8.84-8zm27.12-46.42c3.66 1.06 8.76 0.89 12.41 1.23 6.29 0.7 11.05 2.26 14.62 5.67 4.93 4.29 6.72 11.53 6.72 19.7 0 16.22-7.06 36.86-26.1 36.86-10.54 0-16.91-6.61-16.91-17.62 0-12.47 8.58-25.84 21.84-25.84 5.61 0 9.18 2.78 10.97 7.04h0.25c0.09-0.87 0.09-1.91 0.09-2.61 0.08-3.13-1.02-6.95-3.66-9.23-2.72-2.71-6.71-3.58-11.9-3.93-2.55-0.26-5.1-0.34-8.16-0.97zm19.64 38.05c0-4.16-1.53-8.66-6.12-8.66-6.89 0-10.2 10.05-10.12 16.72 0 4.24 1.7 8.14 6.12 8.14 6.55 0 10.03-10.56 10.12-16.2zm36.62-18.05l-4.23 22.77c-0.34 2-0.6 4.09-0.6 5.66 0 2.69 1.09 4.86 4.15 4.86 4.15 0 8.4-5.13 10.02-13.56l3.67-19.73h12.15l-5.27 28.69c-0.93 5.38-1.7 9.99-2.21 13.82h-10.81l0.77-6.96h-0.17c-4.24 5.57-9.25 7.92-14.25 7.92-6.72 0-10.72-3.83-10.72-11.91 0-2.27 0.26-4.88 0.85-7.83l4.42-23.73zm188.73 52.77c3.74-7.74 7.48-16.78 9.69-24.69l13.26-0.87c-3.91 8.86-9.09 17.99-14.11 24.77zm60.44-52.77l6.46 17.56h1.19l3.23-17.56h11.56l-3.49 17.56h1.28l13.34-17.56h13.6l-17.08 18.7c4.08 1.39 6.04 7.47 6.89 12.51 0.68 3.57 1.36 8.09 2.37 11.31h-11.81c-0.93-2.7-1.36-6.35-1.87-9.22-0.77-4.35-1.96-8.61-6.46-8.61h-1.45l-3.23 17.83h-11.64l3.48-17.83h-1.1c-4.59 0-7.4 3.05-9.52 7.74-1.79 3.74-3.06 7.13-4.85 10.09h-12.07c1.96-3.48 3.32-7.22 5.27-11.39 2.89-6.35 7.23-11.74 12.84-12.35l-10.12-18.78zm64.93 0l-4.24 22.78c-0.33 2-0.59 4.09-0.59 5.65 0 2.7 1.09 4.87 4.15 4.87 4.15 0 8.4-5.13 10.02-13.56l3.67-19.74h12.15l-5.27 28.69c-0.93 5.39-1.7 10-2.21 13.83h-10.81l0.77-6.96h-0.17c-4.24 5.56-9.25 7.91-14.25 7.91-6.72 0-10.71-3.83-10.71-11.91 0-2.26 0.25-4.87 0.84-7.82l4.43-23.74zm68.69 9.48c0 5.56-5.35 8.95-9.69 10.08v0.18c4.34 0.52 8.67 3.39 8.67 8.87 0 11.21-12.83 14.77-21.93 14.77-10.71 0-16.32-4.17-16.32-13.12 0-7.83 3.32-21.74 10.8-27.3 3.65-2.61 8.07-4 13.51-4 9.1 0 14.96 3.39 14.96 10.52zm-25.07 8.17c3.31-0.52 6.97-1.13 9.77-2.43 1.96-0.96 3.57-2.35 3.57-4.35 0-2.09-1.78-3.39-4.33-3.39-5.44 0-7.74 5.48-9.01 10.17zm-1.45 8c-0.25 1.13-0.51 2.7-0.51 4 0 2.96 1.45 5.13 5.53 5.13 4.76 0 8.07-2.43 8.07-5.83 0-3.56-2.97-4.61-6.29-4.61-2.46 0-5.18 0.7-6.8 1.31zm65.63 14.43c-4.85 2.52-10.88 3.39-15.56 3.39-11.82 0-17.93-6.87-17.93-18 0-12.95 9.17-26.42 24.22-26.42 8.42 0 14.45 4.87 14.45 12.77 0 10.79-10.28 14.7-27.03 14.26 0.09 1.22 0.51 3.14 1.36 4.35 1.62 2.18 4.42 3.3 7.99 3.3 4.51 0 8.33-1.04 11.65-2.69zm-10.8-31.91c-5.69 0-9.01 4.87-9.86 8.78 9.61 0.09 14.36-1.21 14.36-5.21 0-2.09-1.69-3.57-4.5-3.57zm38.49-8.17l-4.23 22.78c-0.34 2-0.6 4.09-0.6 5.65 0 2.69 1.09 4.87 4.15 4.87 4.16 0 8.41-5.13 10.02-13.56l3.67-19.74h12.16l-5.28 28.69c-0.93 5.39-1.69 10-2.21 13.82h-10.81l0.77-6.95h-0.17c-4.24 5.56-9.25 7.91-14.25 7.91-6.72 0-10.71-3.83-10.71-11.91 0-2.26 0.25-4.87 0.85-7.82l4.42-23.74zm5.93-17.64c-0.42 3.47 0.77 5.73 3.06 5.73 2.47 0 3.93-2.6 4.69-5.73h7.82c-1.53 7.56-6.37 11.47-13.27 11.47-7.47 0-10.53-4.61-10.02-11.47zm209.4 40.94l5.52-39.38h13.18l-9.18 39.38zm2.59 20.17c-4.2 0-7.6-3.54-7.6-7.91 0-4.38 3.4-7.91 7.6-7.91 4.21 0 7.61 3.53 7.61 7.91 0 4.37-3.4 7.91-7.61 7.91z"/>
				</g>
				<path id="Fill-4" fill-rule="evenodd" class="s3" d="m287.33 268.64h-20.32l-2.64 14.17h22.87l-1.95 10.69h-35.19l10.88-58.59h33.91l-2.04 10.7h-21.59l-2.38 12.51h20.49zm49.64 23.22c-3.06 1.39-8.16 2.52-15.05 2.52-15.21 0-25.33-9.48-25.33-24.86 0-13.13 5.78-23.39 14.45-29.3 5.95-4.17 12.92-6.17 21-6.17 6.21 0 10.88 1.47 12.58 2.43l-3.4 10.17c-1.61-0.78-5.44-1.91-10.37-1.91-4.93 0-9.61 1.56-13.09 4.52-4.76 4.09-7.9 10.69-7.9 18.86 0 9.3 5.18 15.56 15.21 15.56 4.08 0 8.08-0.69 10.88-1.91zm61.63-33.46c0 10.69-3.65 21.12-10.2 27.64-5.36 5.3-12.58 8.43-21.17 8.43-14.87 0-23.2-10.78-23.2-24.42 0-10.61 3.82-21.13 10.54-27.74 5.35-5.21 12.66-8.34 20.91-8.34 15.13 0 23.12 10.43 23.12 24.43zm-34.43-9.57c-4.59 4.61-7.14 13.74-7.14 20.78 0 8.26 3.66 14.43 11.99 14.43 3.65 0 6.97-1.56 9.6-4.26 4.51-4.61 6.97-14.26 6.97-21.04 0-7.3-2.55-14.34-11.56-14.34-3.82 0-7.22 1.65-9.86 4.43zm346.4-13.91h12.24l-8.84 47.64h22.02l-2.04 10.96h-34.26zm63.67 56.15c-4.85 2.52-10.88 3.39-15.56 3.39-11.81 0-17.93-6.87-17.93-17.99 0-12.96 9.18-26.43 24.22-26.43 8.42 0 14.45 4.87 14.45 12.78 0 10.78-10.28 14.69-27.03 14.26 0.09 1.21 0.51 3.13 1.36 4.34 1.62 2.18 4.42 3.31 7.99 3.31 4.51 0 8.33-1.05 11.65-2.7zm-10.8-31.91c-5.69 0-9.01 4.87-9.86 8.79 9.61 0.08 14.37-1.22 14.37-5.22 0-2.09-1.7-3.57-4.51-3.57zm49.65 32.95c-2.64 1.31-6.89 2.26-11.82 2.26-10.28 0-17.51-6.43-17.51-17.38 0-15.13 11.31-26.95 27.12-26.95 3.57 0 6.63 0.69 8.49 1.39l-3.05 9.65c-1.45-0.61-3.15-1.05-5.61-1.05-8.67 0-14.11 7.57-14.11 15.57 0 5.82 3.65 8.78 8.16 8.78 3.57 0 6.12-0.87 8.24-1.74zm49.3-24.61c0 15.57-10.45 26.95-24.82 26.95-10.54 0-17.59-7.04-17.59-17.64 0-14.7 10.02-26.86 24.82-26.86 11.13 0 17.59 7.82 17.59 17.55zm-29.75 9.13c0 4.96 2.38 8.26 6.71 8.26 6.55 0 10.38-10.08 10.38-17.3 0-3.91-1.7-8.08-6.55-8.08-7.05 0-10.54 10.52-10.54 17.12z"/>
			</g>
		</g>
	</g>
</svg>