<?xml version="1.0" encoding="UTF-8"?>
<svg width="293px" height="27px" viewBox="0 0 293 27" version="1.1" xmlns="http://www.w3.org/2000/svg" xmlns:xlink="http://www.w3.org/1999/xlink">
    <title>Group 6</title>
    <g id="Desktop" stroke="none" stroke-width="1" fill="none" fill-rule="evenodd">
        <g id="Product-Page-v02" transform="translate(-825.000000, -39.000000)">
            <g id="Group-6" transform="translate(825.000000, 39.000000)">
                <g id="Group-3" transform="translate(0.000000, 0.065700)" fill="#004E98">
                    <path d="M3.6899,2.2822 L-0.0001,22.3772 C0.9079,22.5262 2.9289,22.6762 4.9789,22.6762 C7.7309,22.6762 10.5719,22.1062 12.5629,20.5192 C14.0559,19.3512 15.0809,17.5852 15.0809,15.1892 C15.0809,11.2962 12.2409,9.4092 8.7559,9.4092 C8.0239,9.4092 7.1459,9.4992 6.5599,9.6192 L7.2329,5.9952 L15.0519,5.9952 L15.6959,2.2822 L3.6899,2.2822 Z M5.9449,12.8232 C6.3839,12.7332 6.9989,12.6742 7.4969,12.6742 C9.3419,12.6742 10.6299,13.7212 10.6299,15.6682 C10.6299,18.0942 8.3169,19.3512 6.2669,19.3512 C5.6809,19.3512 5.2419,19.3512 4.7729,19.2612 L5.9449,12.8232 Z M17.8049,7.8222 L17.1899,11.1462 L21.8749,11.1462 C20.4109,13.2422 19.0349,16.2072 19.0349,18.5132 C19.0349,22.0472 21.6699,22.7352 24.2469,22.7352 C29.2259,22.7352 31.9779,19.2922 31.9779,16.1782 C31.9779,13.6012 30.2209,12.1352 27.9079,12.1352 C26.3559,12.1352 25.0379,12.6132 24.1009,13.4822 L24.0709,13.4822 C24.8619,11.5362 26.0339,9.6782 27.2639,7.8222 L17.8049,7.8222 Z M24.8039,19.6812 C23.7199,19.6812 23.2219,18.9632 23.2219,18.1242 C23.2219,17.7052 23.3099,17.3452 23.4859,16.9862 C23.8369,16.1472 24.8619,15.2192 26.1219,15.2192 C27.1749,15.2192 27.8489,15.8472 27.8489,16.9262 C27.8489,18.5732 26.3849,19.6812 24.8039,19.6812 L24.8039,19.6812 Z M37.2499,4.4832 C38.3029,4.6982 39.1819,4.7272 40.0609,4.8172 C41.8469,4.9372 43.2229,5.2362 44.1599,6.1702 C45.0679,6.9542 45.4489,8.2712 45.4199,9.3492 C45.4199,9.5892 45.4199,9.9482 45.3899,10.2482 L45.3019,10.2482 C44.6879,8.7802 43.4579,7.8222 41.5249,7.8222 C36.9569,7.8222 33.9989,12.4282 33.9989,16.7262 C33.9989,20.5192 36.1949,22.7962 39.8259,22.7962 C46.3859,22.7962 48.8159,15.6832 48.8159,10.0982 C48.8159,7.2832 48.2009,4.7882 46.5029,3.3102 C45.2729,2.1372 43.6329,1.5982 41.4659,1.3582 C40.2069,1.2392 38.4499,1.2992 37.1909,0.9342 L37.2499,4.4832 Z M40.4699,19.6212 C38.9479,19.6212 38.3619,18.2782 38.3619,16.8162 C38.3329,14.5202 39.4749,11.0562 41.8469,11.0562 C43.4279,11.0562 43.9549,12.6082 43.9549,14.0412 C43.9259,15.9832 42.7249,19.6212 40.4699,19.6212 L40.4699,19.6212 Z M52.3589,7.8222 L50.8359,15.9982 C50.6319,17.0152 50.5439,17.9142 50.5439,18.6932 C50.5439,21.4772 51.9199,22.7962 54.2339,22.7962 C55.9569,22.7962 57.6839,21.9872 59.1439,20.0702 L59.2019,20.0702 L58.9389,22.4672 L62.6629,22.4672 C62.8379,21.1482 63.1019,19.5612 63.4239,17.7052 L65.2389,7.8222 L61.0519,7.8222 L59.7879,14.6202 C59.2319,17.5252 57.7669,19.2922 56.3369,19.2922 C55.2829,19.2922 54.9069,18.5432 54.9069,17.6152 C54.9069,17.0762 54.9949,16.3572 55.1119,15.6682 L56.5719,7.8222 L52.3589,7.8222 Z M124.6319,25.7302 C126.3599,23.3942 128.1459,20.2502 129.4929,17.1952 L124.9249,17.4952 C124.1629,20.2202 122.8749,23.3352 121.5869,26.0002 L124.6319,25.7302 Z M137.8679,7.8222 L141.3529,14.2912 C139.4199,14.5002 137.9269,16.3572 136.9309,18.5432 C136.2569,19.9802 135.7889,21.2682 135.1149,22.4672 L139.2729,22.4672 C139.8889,21.4482 140.3279,20.2802 140.9429,18.9922 C141.6749,17.3752 142.6419,16.3272 144.2219,16.3272 L144.6029,16.3272 L143.4029,22.4672 L147.4149,22.4672 L148.5269,16.3272 L149.0249,16.3272 C150.5769,16.3272 150.9869,17.7952 151.2509,19.2922 C151.4259,20.2802 151.5729,21.5382 151.8949,22.4672 L155.9649,22.4672 C155.6139,21.3582 155.3799,19.8012 155.1459,18.5732 C154.8529,16.8362 154.1789,14.7402 152.7729,14.2612 L158.6589,7.8222 L153.9739,7.8222 L149.3769,13.8712 L148.9369,13.8712 L150.1379,7.8222 L146.1549,7.8222 L145.0429,13.8712 L144.6319,13.8712 L142.4069,7.8222 L137.8679,7.8222 Z M160.5629,7.8222 L159.0399,15.9982 C158.8349,17.0152 158.7479,17.9142 158.7479,18.6932 C158.7479,21.4772 160.1239,22.7962 162.4369,22.7962 C164.1599,22.7962 165.8879,21.9872 167.3469,20.0702 L167.4059,20.0702 L167.1419,22.4672 L170.8659,22.4672 C171.0419,21.1482 171.3049,19.5612 171.6269,17.7052 L173.4429,7.8222 L169.2549,7.8222 L167.9909,14.6202 C167.4349,17.5252 165.9709,19.2922 164.5409,19.2922 C163.4859,19.2922 163.1099,18.5432 163.1099,17.6152 C163.1099,17.0762 163.1989,16.3572 163.3149,15.6682 L164.7749,7.8222 L160.5629,7.8222 Z M183.2869,7.4632 C181.4129,7.4632 179.8899,7.9422 178.6309,8.8412 C176.0539,10.7572 174.9119,15.5492 174.9119,18.2432 C174.9119,21.3282 176.8449,22.7652 180.5339,22.7652 C183.6679,22.7652 188.0889,21.5382 188.0889,17.6752 C188.0889,15.7882 186.5959,14.8002 185.1029,14.6202 L185.1029,14.5602 C186.5959,14.1712 188.4409,13.0032 188.4409,11.0862 C188.4409,8.6312 186.4199,7.4632 183.2869,7.4632 L183.2869,7.4632 Z M182.9059,10.3972 C183.7849,10.3972 184.3999,10.8462 184.3999,11.5652 C184.3999,12.2552 183.8429,12.7332 183.1699,13.0622 C182.2039,13.5112 180.9439,13.7212 179.8019,13.9012 C180.2409,12.2842 181.0319,10.3972 182.9059,10.3972 L182.9059,10.3972 Z M181.6469,16.2072 C182.7889,16.2072 183.8139,16.5672 183.8139,17.7952 C183.8139,18.9632 182.6719,19.8012 181.0319,19.8012 C179.6269,19.8012 179.1289,19.0532 179.1289,18.0342 C179.1289,17.5852 179.2159,17.0462 179.3039,16.6562 C179.8609,16.4472 180.7979,16.2072 181.6469,16.2072 L181.6469,16.2072 Z M201.6189,18.5132 C200.4769,19.0822 199.1589,19.4412 197.6069,19.4412 C196.3769,19.4412 195.4109,19.0532 194.8539,18.3032 C194.5609,17.8852 194.4149,17.2252 194.3859,16.8062 C200.1539,16.9562 203.6969,15.6082 203.6969,11.8942 C203.6969,9.1702 201.6189,7.4932 198.7189,7.4932 C193.5359,7.4932 190.3739,12.1352 190.3739,16.5962 C190.3739,20.4292 192.4819,22.7962 196.5529,22.7962 C198.1629,22.7962 200.2419,22.4962 201.9119,21.6282 L201.6189,18.5132 Z M199.7439,11.8652 C199.7439,13.2422 198.1049,13.6912 194.7949,13.6622 C195.0879,12.3142 196.2309,10.6362 198.1919,10.6362 C199.1589,10.6362 199.7439,11.1462 199.7439,11.8652 L199.7439,11.8652 Z M207.2409,7.8222 L205.7179,15.9982 C205.5129,17.0152 205.4249,17.9142 205.4249,18.6932 C205.4249,21.4772 206.8019,22.7962 209.1149,22.7962 C210.8379,22.7962 212.5659,21.9872 214.0249,20.0702 L214.0839,20.0702 L213.8199,22.4672 L217.5439,22.4672 C217.7199,21.1482 217.9829,19.5612 218.3049,17.7052 L220.1209,7.8222 L215.9329,7.8222 L214.6689,14.6202 C214.1129,17.5252 212.6489,19.2922 211.2189,19.2922 C210.1649,19.2922 209.7889,18.5432 209.7889,17.6152 C209.7889,17.0762 209.8769,16.3572 209.9939,15.6682 L211.4529,7.8222 L207.2409,7.8222 Z M210.8379,1.7432 C210.6629,4.1082 211.7159,5.6962 214.2889,5.6962 C216.6659,5.6962 218.3349,4.3482 218.8619,1.7432 L216.1679,1.7432 C215.9039,2.8212 215.4009,3.7192 214.5519,3.7192 C213.7619,3.7192 213.3519,2.9402 213.4979,1.7432 L210.8379,1.7432 Z M288.9129,15.8472 L292.0759,2.2822 L287.5369,2.2822 L285.6329,15.8472 L288.9129,15.8472 Z M286.2479,22.7962 C287.9469,22.7962 289.1479,21.5682 289.1479,19.8612 C289.1479,18.3932 288.1519,17.3452 286.7459,17.3452 C285.0769,17.3452 283.9059,18.7532 283.9059,20.3402 C283.9059,21.7482 284.8429,22.7962 286.2479,22.7962 L286.2479,22.7962 Z" id="Fill-1"></path>
                </g>
                <path d="M85.2158,10.344 L78.1578,10.344 L78.9788,6.032 L86.4168,6.032 L87.1188,2.348 L75.4348,2.348 L71.6868,22.532 L83.8098,22.532 L84.4838,18.849 L76.6058,18.849 L77.5138,13.967 L84.5128,13.967 L85.2158,10.344 Z M101.2628,18.49 C100.2968,18.908 98.9208,19.148 97.5148,19.148 C94.0598,19.148 92.2738,16.991 92.2738,13.787 C92.2738,10.973 93.3568,8.697 94.9958,7.289 C96.1968,6.271 97.8078,5.732 99.5068,5.732 C101.2048,5.732 102.5228,6.121 103.0788,6.391 L104.2498,2.887 C103.6648,2.557 102.0538,2.048 99.9158,2.048 C97.1338,2.048 94.7328,2.738 92.6828,4.174 C89.6958,6.211 87.7048,9.744 87.7048,14.267 C87.7048,19.567 91.1898,22.831 96.4308,22.831 C98.8028,22.831 100.5608,22.443 101.6148,21.963 L101.2628,18.49 Z M114.8808,2.019 C112.0398,2.019 109.5218,3.096 107.6768,4.893 C105.3628,7.169 104.0458,10.793 104.0458,14.447 C104.0458,19.148 106.9148,22.862 112.0398,22.862 C114.9978,22.862 117.4868,21.783 119.3308,19.956 C121.5868,17.71 122.8458,14.117 122.8458,10.434 C122.8458,5.612 120.0928,2.019 114.8808,2.019 L114.8808,2.019 Z M114.3828,5.612 C117.4868,5.612 118.3648,8.037 118.3648,10.553 C118.3648,12.889 117.5158,16.213 115.9638,17.8 C115.0558,18.729 113.9138,19.268 112.6548,19.268 C109.7848,19.268 108.5258,17.142 108.5258,14.296 C108.5258,11.87 109.4038,8.726 110.9858,7.139 C111.8928,6.181 113.0648,5.612 114.3828,5.612 L114.3828,5.612 Z M226.5688,22.532 L238.3698,22.532 L239.0718,18.759 L231.4878,18.759 L234.5328,2.348 L230.3168,2.348 L226.5688,22.532 Z M251.9568,18.579 C250.8148,19.148 249.4968,19.507 247.9448,19.507 C246.7148,19.507 245.7488,19.118 245.1928,18.369 C244.8998,17.95 244.7538,17.291 244.7238,16.872 C250.4928,17.022 254.0358,15.674 254.0358,11.96 C254.0358,9.236 251.9568,7.559 249.0578,7.559 C243.8748,7.559 240.7118,12.2 240.7118,16.662 C240.7118,20.495 242.8198,22.862 246.8908,22.862 C248.5018,22.862 250.5808,22.562 252.2498,21.694 L251.9568,18.579 Z M250.0828,11.931 C250.0828,13.308 248.4428,13.757 245.1338,13.728 C245.4268,12.38 246.5688,10.702 248.5308,10.702 C249.4968,10.702 250.0828,11.212 250.0828,11.931 L250.0828,11.931 Z M265.6028,18.788 C264.8708,19.088 263.9928,19.388 262.7628,19.388 C261.2108,19.388 259.9518,18.369 259.9518,16.363 C259.9518,13.608 261.8258,11.002 264.8128,11.002 C265.6618,11.002 266.2478,11.152 266.7458,11.362 L267.7988,8.037 C267.1548,7.798 266.1008,7.559 264.8708,7.559 C259.4248,7.559 255.5298,11.631 255.5298,16.842 C255.5298,20.615 258.0188,22.831 261.5618,22.831 C263.2608,22.831 264.7248,22.502 265.6328,22.053 L265.6028,18.788 Z M276.5558,7.529 C271.4598,7.529 268.0048,11.721 268.0048,16.782 C268.0048,20.436 270.4348,22.862 274.0658,22.862 C279.0148,22.862 282.6168,18.939 282.6168,13.577 C282.6168,10.224 280.3918,7.529 276.5558,7.529 L276.5558,7.529 Z M275.9988,10.823 C277.6688,10.823 278.2538,12.26 278.2538,13.608 C278.2538,16.094 276.9358,19.567 274.6808,19.567 C273.1878,19.567 272.3678,18.429 272.3678,16.722 C272.3678,14.447 273.5688,10.823 275.9988,10.823 L275.9988,10.823 Z" id="Fill-4" fill="#69B32B"></path>
            </g>
        </g>
    </g>
</svg>